<svg width="50" height="50" viewBox="0 0 50 50" fill="none" xmlns="http://www.w3.org/2000/svg">
<g clip-path="url(#clip0_4_2)">
<path d="M40 0H10C4.47715 0 0 4.47715 0 10V40C0 45.5228 4.47715 50 10 50H40C45.5228 50 50 45.5228 50 40V10C50 4.47715 45.5228 0 40 0Z" fill="white"/>
<path d="M40 0H10C4.47715 0 0 4.47715 0 10V40C0 45.5228 4.47715 50 10 50H40C45.5228 50 50 45.5228 50 40V10C50 4.47715 45.5228 0 40 0Z" fill="url(#paint0_radial_4_2)"/>
<path style="mix-blend-mode:color-dodge" d="M40 0H10C4.47715 0 0 4.47715 0 10V40C0 45.5228 4.47715 50 10 50H40C45.5228 50 50 45.5228 50 40V10C50 4.47715 45.5228 0 40 0Z" fill="url(#paint1_radial_4_2)"/>
<path d="M40 0H10C4.47715 0 0 4.47715 0 10V40C0 45.5228 4.47715 50 10 50H40C45.5228 50 50 45.5228 50 40V10C50 4.47715 45.5228 0 40 0Z" fill="white" fill-opacity="0.08"/>
<path d="M40 39H12L18.0013 30.7973L23.3542 37.5294L31.3528 27L40 39Z" fill="black"/>
<mask id="mask0_4_2" style="mask-type:alpha" maskUnits="userSpaceOnUse" x="13" y="15" width="23" height="22">
<path d="M14.326 33.0381C14.0626 32.7396 13.878 32.3735 13.7906 31.9764L13.0543 28.5633C12.966 28.1521 12.9857 27.7233 13.1112 27.3231C13.2368 26.9228 13.4634 26.5661 13.7669 26.2915L14.2507 21.11C14.3219 20.3472 14.6191 19.6274 15.1002 19.0526C15.5813 18.4779 16.2218 18.0773 16.9309 17.9078L26.7666 15.549C27.4751 15.3791 28.2163 15.4484 28.8853 15.7471C29.5543 16.0458 30.1173 16.5587 30.4944 17.2133L33.0559 21.6648C33.4426 21.7735 33.7938 21.9913 34.0718 22.2948C34.3498 22.5982 34.544 22.9759 34.6335 23.3871L35.371 26.8001C35.5523 27.6396 35.2723 28.4698 34.7147 29.018L34.9848 30.3515C34.9848 30.3515 35.0985 30.7134 35.1067 30.9537C35.1532 32.3178 32.3499 32.9486 31.864 31.6834C31.7784 31.4605 31.7421 31.0812 31.7421 31.0812L31.5458 30.1117L18.5985 33.2164L18.7492 33.9607C18.7492 33.9607 18.874 34.3478 18.8797 34.6051C18.9096 35.9638 16.193 36.5647 15.651 35.3316C15.5484 35.0979 15.4975 34.6924 15.4975 34.6924L15.292 33.6776C14.9225 33.5571 14.5895 33.3366 14.326 33.0381Z" fill="black"/>
</mask>
<g mask="url(#mask0_4_2)">
<path d="M40 0H10C4.47715 0 0 4.47715 0 10V40C0 45.5228 4.47715 50 10 50H40C45.5228 50 50 45.5228 50 40V10C50 4.47715 45.5228 0 40 0Z" fill="url(#paint2_radial_4_2)"/>
<path style="mix-blend-mode:color-dodge" d="M40 0H10C4.47715 0 0 4.47715 0 10V40C0 45.5228 4.47715 50 10 50H40C45.5228 50 50 45.5228 50 40V10C50 4.47715 45.5228 0 40 0Z" fill="url(#paint3_radial_4_2)"/>
<path d="M40 0H10C4.47715 0 0 4.47715 0 10V40C0 45.5228 4.47715 50 10 50H40C45.5228 50 50 45.5228 50 40V10C50 4.47715 45.5228 0 40 0Z" fill="white" fill-opacity="0.08"/>
</g>
<rect x="5" y="5" width="40" height="40" rx="5" stroke="black"/>
<path d="M14.326 33.0381C14.0626 32.7396 13.878 32.3735 13.7906 31.9764L13.0543 28.5633C12.966 28.1521 12.9857 27.7233 13.1112 27.3231C13.2368 26.9228 13.4634 26.5661 13.7669 26.2915L14.2507 21.11C14.3219 20.3472 14.6191 19.6274 15.1002 19.0526C15.5813 18.4779 16.2218 18.0773 16.9309 17.9078L26.7666 15.549C27.4751 15.3791 28.2163 15.4484 28.8853 15.7471C29.5543 16.0458 30.1173 16.5587 30.4944 17.2133L33.0559 21.6648C33.4426 21.7735 33.7938 21.9913 34.0718 22.2948C34.3498 22.5982 34.544 22.9759 34.6335 23.3871L35.371 26.8001C35.5523 27.6396 35.2723 28.4698 34.7147 29.018L34.9848 30.3515C34.9848 30.3515 35.0985 30.7134 35.1067 30.9537C35.1532 32.3178 32.3499 32.9486 31.864 31.6834C31.7784 31.4605 31.7421 31.0812 31.7421 31.0812L31.5458 30.1117L18.5985 33.2164L18.7492 33.9607C18.7492 33.9607 18.874 34.3478 18.8797 34.6051C18.9096 35.9638 16.193 36.5647 15.651 35.3316C15.5484 35.0979 15.4975 34.6924 15.4975 34.6924L15.292 33.6776C14.9225 33.5571 14.5895 33.3366 14.326 33.0381Z" stroke="black"/>
<path d="M31.625 11L33.3814 13.6356L37.8755 11L36.6254 13.3687L35.3753 15.7374L37.8755 16.9669L35.3753 18.1964L37.8755 21.5422L34.1252 20.2244L31 14.9533L31.625 11Z" stroke="black" stroke-width="0.5"/>
<path d="M27.3217 18.1173L17.4846 20.4775C17.2872 20.5244 17.1088 20.6357 16.9748 20.7956C16.8408 20.9556 16.7581 21.1559 16.7383 21.3683L16.3646 25.377L17.0746 25.207L29.6331 22.1932L30.3406 22.0232L28.3592 18.5799C28.2543 18.3976 28.0976 18.2549 27.9113 18.1719C27.7251 18.0888 27.5188 18.0698 27.3217 18.1173Z" stroke="black"/>
<circle cx="16.5" cy="29.5" r="1.5" stroke="black" stroke-width="0.5"/>
<circle cx="31.5" cy="26" r="1.5" stroke="black" stroke-width="0.5"/>
</g>
<defs>
<radialGradient id="paint0_radial_4_2" cx="0" cy="0" r="1" gradientUnits="userSpaceOnUse" gradientTransform="translate(3.5 3) rotate(18.8583) scale(64.196)">
<stop stop-color="#6CF0FF"/>
<stop offset="1" stop-color="#315A6E"/>
</radialGradient>
<radialGradient id="paint1_radial_4_2" cx="0" cy="0" r="1" gradientUnits="userSpaceOnUse" gradientTransform="translate(-2.74658e-06 2) rotate(46.8087) scale(67.2086)">
<stop stop-color="#DD9AFF" stop-opacity="0.21"/>
<stop offset="0.903707" stop-color="#E26CFF"/>
</radialGradient>
<radialGradient id="paint2_radial_4_2" cx="0" cy="0" r="1" gradientUnits="userSpaceOnUse" gradientTransform="translate(3.5 3) rotate(18.8583) scale(64.196)">
<stop stop-color="#6CF0FF"/>
<stop offset="1" stop-color="#315A6E"/>
</radialGradient>
<radialGradient id="paint3_radial_4_2" cx="0" cy="0" r="1" gradientUnits="userSpaceOnUse" gradientTransform="translate(-2.74658e-06 2) rotate(46.8087) scale(67.2086)">
<stop stop-color="#DD9AFF" stop-opacity="0.21"/>
<stop offset="0.903707" stop-color="#E26CFF"/>
</radialGradient>
<clipPath id="clip0_4_2">
<rect width="50" height="50" fill="white"/>
</clipPath>
</defs>
</svg>
